<svg width="138" height="230" viewBox="0 0 138 230" fill="none" xmlns="http://www.w3.org/2000/svg">
<g filter="url(#filter0_d_13_2)">
<path d="M49.5 192.5L10.5 200.5L5 221H133L123.5 200.5L86 192.5L77 82L123.5 78.5L133 53L77 57.5L81.5 45.5L70.5 2.5L58.5 45.5L63.5 57.5L5 53L21.5 78.5L54 82L49.5 192.5Z" fill="#FFA500"/>
<path d="M49.5 192.5L10.5 200.5L5 221H133L123.5 200.5L86 192.5L77 82L123.5 78.5L133 53L77 57.5L81.5 45.5L70.5 2.5L58.5 45.5L63.5 57.5L5 53L21.5 78.5L54 82L49.5 192.5Z" stroke="black"/>
</g>
<defs>
<filter id="filter0_d_13_2" x="0.0317841" y="0.564697" width="137.751" height="228.935" filterUnits="userSpaceOnUse" color-interpolation-filters="sRGB">
<feFlood flood-opacity="0" result="BackgroundImageFix"/>
<feColorMatrix in="SourceAlpha" type="matrix" values="0 0 0 0 0 0 0 0 0 0 0 0 0 0 0 0 0 0 127 0" result="hardAlpha"/>
<feOffset dy="4"/>
<feGaussianBlur stdDeviation="2"/>
<feComposite in2="hardAlpha" operator="out"/>
<feColorMatrix type="matrix" values="0 0 0 0 0 0 0 0 0 0 0 0 0 0 0 0 0 0 0.25 0"/>
<feBlend mode="normal" in2="BackgroundImageFix" result="effect1_dropShadow_13_2"/>
<feBlend mode="normal" in="SourceGraphic" in2="effect1_dropShadow_13_2" result="shape"/>
</filter>
</defs>
</svg>
